<mxfile host="app.diagrams.net" agent="Mozilla/5.0 (X11; Ubuntu; Linux x86_64; rv:136.0) Gecko/20100101 Firefox/136.0" version="26.2.13">
  <diagram name="Page-1" id="DDpxaSBSK2T_bfguu6bS">
    <mxGraphModel dx="819" dy="530" grid="1" gridSize="10" guides="1" tooltips="1" connect="1" arrows="1" fold="1" page="1" pageScale="1" pageWidth="850" pageHeight="1100" math="0" shadow="0">
      <root>
        <mxCell id="0" />
        <mxCell id="1" parent="0" />
        <mxCell id="yX9GwQDY1imTRbTstE0q-4" style="edgeStyle=orthogonalEdgeStyle;rounded=0;orthogonalLoop=1;jettySize=auto;html=1;exitX=0;exitY=0.5;exitDx=0;exitDy=0;entryX=0.5;entryY=0;entryDx=0;entryDy=0;" edge="1" parent="1" source="yX9GwQDY1imTRbTstE0q-1" target="yX9GwQDY1imTRbTstE0q-3">
          <mxGeometry relative="1" as="geometry" />
        </mxCell>
        <mxCell id="yX9GwQDY1imTRbTstE0q-1" value="UART" style="rounded=0;whiteSpace=wrap;html=1;" vertex="1" parent="1">
          <mxGeometry x="280" y="200" width="280" height="60" as="geometry" />
        </mxCell>
        <mxCell id="yX9GwQDY1imTRbTstE0q-7" style="edgeStyle=orthogonalEdgeStyle;rounded=0;orthogonalLoop=1;jettySize=auto;html=1;exitX=1;exitY=0.5;exitDx=0;exitDy=0;entryX=0;entryY=0.5;entryDx=0;entryDy=0;" edge="1" parent="1" source="yX9GwQDY1imTRbTstE0q-2" target="yX9GwQDY1imTRbTstE0q-6">
          <mxGeometry relative="1" as="geometry" />
        </mxCell>
        <mxCell id="yX9GwQDY1imTRbTstE0q-2" value="Hidden Layer&lt;div&gt;ShiftLIF Parallel&lt;/div&gt;" style="rounded=0;whiteSpace=wrap;html=1;" vertex="1" parent="1">
          <mxGeometry x="280" y="280" width="120" height="60" as="geometry" />
        </mxCell>
        <mxCell id="yX9GwQDY1imTRbTstE0q-5" style="edgeStyle=orthogonalEdgeStyle;rounded=0;orthogonalLoop=1;jettySize=auto;html=1;exitX=1;exitY=0.5;exitDx=0;exitDy=0;entryX=0;entryY=0.5;entryDx=0;entryDy=0;" edge="1" parent="1" source="yX9GwQDY1imTRbTstE0q-3" target="yX9GwQDY1imTRbTstE0q-2">
          <mxGeometry relative="1" as="geometry" />
        </mxCell>
        <mxCell id="yX9GwQDY1imTRbTstE0q-3" value="Merger" style="rounded=0;whiteSpace=wrap;html=1;" vertex="1" parent="1">
          <mxGeometry x="180" y="280" width="60" height="60" as="geometry" />
        </mxCell>
        <mxCell id="yX9GwQDY1imTRbTstE0q-9" style="edgeStyle=orthogonalEdgeStyle;rounded=0;orthogonalLoop=1;jettySize=auto;html=1;exitX=1;exitY=0.5;exitDx=0;exitDy=0;entryX=0;entryY=0.5;entryDx=0;entryDy=0;" edge="1" parent="1" source="yX9GwQDY1imTRbTstE0q-6" target="yX9GwQDY1imTRbTstE0q-8">
          <mxGeometry relative="1" as="geometry" />
        </mxCell>
        <mxCell id="yX9GwQDY1imTRbTstE0q-6" value="Output Layer&lt;div&gt;RShiftLIF Parallel&lt;/div&gt;" style="rounded=0;whiteSpace=wrap;html=1;" vertex="1" parent="1">
          <mxGeometry x="440" y="280" width="120" height="60" as="geometry" />
        </mxCell>
        <mxCell id="yX9GwQDY1imTRbTstE0q-10" style="edgeStyle=orthogonalEdgeStyle;rounded=0;orthogonalLoop=1;jettySize=auto;html=1;exitX=0.5;exitY=1;exitDx=0;exitDy=0;entryX=0.5;entryY=1;entryDx=0;entryDy=0;" edge="1" parent="1" source="yX9GwQDY1imTRbTstE0q-8" target="yX9GwQDY1imTRbTstE0q-3">
          <mxGeometry relative="1" as="geometry" />
        </mxCell>
        <mxCell id="yX9GwQDY1imTRbTstE0q-11" style="edgeStyle=orthogonalEdgeStyle;rounded=0;orthogonalLoop=1;jettySize=auto;html=1;exitX=0.5;exitY=0;exitDx=0;exitDy=0;entryX=1;entryY=0.5;entryDx=0;entryDy=0;" edge="1" parent="1" source="yX9GwQDY1imTRbTstE0q-8" target="yX9GwQDY1imTRbTstE0q-1">
          <mxGeometry relative="1" as="geometry" />
        </mxCell>
        <mxCell id="yX9GwQDY1imTRbTstE0q-8" value="Splitter" style="rounded=0;whiteSpace=wrap;html=1;" vertex="1" parent="1">
          <mxGeometry x="600" y="280" width="60" height="60" as="geometry" />
        </mxCell>
      </root>
    </mxGraphModel>
  </diagram>
</mxfile>
